<svg width="332" height="106" viewBox="0 0 332 106" fill="none" xmlns="http://www.w3.org/2000/svg">
<path d="M58.3755 26.3164C58.3755 29.7826 57.6021 32.8763 56.0552 35.5977C54.5369 38.319 52.5747 40.582 50.1685 42.3867C47.6476 44.2773 44.826 45.7096 41.7036 46.6836C38.5812 47.6289 35.3156 48.1016 31.9067 48.1016H24.4731L20.0903 66.9219C20.033 67.1797 19.9901 67.4518 19.9614 67.7383C19.9328 68.0247 19.9185 68.2682 19.9185 68.4688C19.9185 69.099 20.033 69.6576 20.2622 70.1445C20.4914 70.6315 20.9497 71.0182 21.6372 71.3047C22.0669 71.5052 22.9263 71.6914 24.2153 71.8633C25.533 72.0352 26.7075 72.1354 27.7388 72.1641L27.0942 75H0.92627L1.5708 72.1641C2.28695 72.1068 3.30387 72.0065 4.62158 71.8633C5.93929 71.7201 6.89893 71.5339 7.50049 71.3047C8.53174 70.9036 9.30518 70.3307 9.8208 69.5859C10.3651 68.8125 10.7375 67.9245 10.938 66.9219L21.2075 22.4922C21.2648 22.2344 21.3078 21.9479 21.3364 21.6328C21.3937 21.3177 21.4224 21.0169 21.4224 20.7305C21.4224 20.1289 21.3078 19.5846 21.0786 19.0977C20.8494 18.6107 20.4198 18.2383 19.7896 17.9805C18.8729 17.6367 17.8989 17.3789 16.8677 17.207C15.8364 17.0352 14.8911 16.9206 14.0317 16.8633L14.6763 14.0273H41.7896C46.688 14.0273 50.6698 15.1302 53.7349 17.3359C56.8286 19.513 58.3755 22.5065 58.3755 26.3164ZM44.6255 37.9609C45.8 36.2708 46.6307 34.4805 47.1177 32.5898C47.6047 30.6706 47.8481 28.8802 47.8481 27.2188C47.8481 25.901 47.6619 24.6549 47.2896 23.4805C46.9458 22.306 46.3442 21.2461 45.4849 20.3008C44.6255 19.3841 43.5226 18.668 42.1763 18.1523C40.8299 17.6081 39.1398 17.3359 37.106 17.3359H31.52L25.2896 44.5781H30.145C33.4679 44.5781 36.3325 44.0339 38.7388 42.9453C41.145 41.8281 43.1073 40.1667 44.6255 37.9609ZM77.6272 70.3164L76.9827 73.0664C74.3473 74.1263 72.2418 74.8568 70.6663 75.2578C69.0908 75.6875 67.7444 75.9023 66.6272 75.9023C64.3355 75.9023 62.6168 75.3151 61.471 74.1406C60.3251 72.9375 59.7522 71.4622 59.7522 69.7148C59.7522 69.056 59.8095 68.3685 59.9241 67.6523C60.0387 66.9362 60.2249 66.0339 60.4827 64.9453L65.0374 46.6836C65.2665 45.681 65.4814 44.6068 65.6819 43.4609C65.9111 42.3151 66.0256 41.3411 66.0256 40.5391C66.0256 38.9349 65.7535 37.875 65.2092 37.3594C64.6936 36.8151 63.6194 36.543 61.9866 36.543C61.3564 36.543 60.5113 36.6432 59.4514 36.8438C58.4202 37.0443 57.6324 37.2161 57.0881 37.3594L57.7327 34.6094C59.9671 33.6068 61.9723 32.862 63.7483 32.375C65.5243 31.888 66.928 31.6445 67.9592 31.6445C70.3082 31.6445 72.0126 32.2031 73.0725 33.3203C74.1324 34.4375 74.6624 35.9414 74.6624 37.832C74.6624 38.3477 74.6051 39.0495 74.4905 39.9375C74.3759 40.8255 74.204 41.7135 73.9749 42.6016L69.3772 60.8633C69.0908 61.9805 68.8329 63.0833 68.6038 64.1719C68.4033 65.2318 68.303 66.1055 68.303 66.793C68.303 68.4258 68.6611 69.543 69.3772 70.1445C70.122 70.7461 71.3108 71.0469 72.9436 71.0469C73.4879 71.0469 74.2613 70.9753 75.2639 70.832C76.2952 70.6888 77.0829 70.5169 77.6272 70.3164ZM80.678 15.4023C80.678 17.0352 80.148 18.4674 79.0881 19.6992C78.0283 20.9023 76.7105 21.5039 75.135 21.5039C73.6741 21.5039 72.4137 20.931 71.3538 19.7852C70.2939 18.6107 69.7639 17.2786 69.7639 15.7891C69.7639 14.2135 70.2939 12.8385 71.3538 11.6641C72.4137 10.4896 73.6741 9.90234 75.135 9.90234C76.7678 9.90234 78.0999 10.4609 79.1311 11.5781C80.1624 12.6667 80.678 13.9414 80.678 15.4023ZM97.5235 76.2031C92.5104 76.2031 88.543 74.7422 85.6211 71.8203C82.7279 68.8984 81.2813 64.7448 81.2813 59.3594C81.2813 55.7786 81.8255 52.3555 82.9141 49.0898C84.0313 45.7956 85.5781 42.8737 87.5547 40.3242C89.5313 37.7747 92.0235 35.6979 95.0313 34.0938C98.0677 32.4609 101.434 31.6445 105.129 31.6445C109.225 31.6445 112.333 32.5182 114.453 34.2656C116.602 35.9844 117.676 38.1615 117.676 40.7969C117.676 42.7734 117.203 44.5065 116.258 45.9961C115.341 47.4857 113.952 48.2305 112.09 48.2305C110.543 48.2305 109.383 47.8438 108.609 47.0703C107.836 46.2969 107.449 45.4375 107.449 44.4922C107.449 43.5755 107.764 42.3294 108.395 40.7539C109.025 39.1497 109.526 37.8607 109.898 36.8867C109.583 36.1133 108.882 35.5547 107.793 35.2109C106.704 34.8385 105.573 34.6523 104.398 34.6523C100.503 34.6523 97.1367 36.9297 94.3008 41.4844C91.4935 46.0104 90.0899 51.5677 90.0899 58.1562C90.0899 62.224 90.9922 65.4609 92.7969 67.8672C94.6302 70.2448 97.0938 71.4336 100.188 71.4336C102.966 71.4336 105.43 70.6888 107.578 69.1992C109.755 67.7096 111.832 65.6042 113.809 62.8828L116.258 64.6875C114.281 67.8099 111.589 70.5169 108.18 72.8086C104.8 75.0716 101.247 76.2031 97.5235 76.2031ZM137.787 76.2461C134.263 76.2461 131.17 75.8164 128.506 74.957C125.87 74.069 123.736 73.0521 122.103 71.9062L119.654 75.043H116.217L120.428 54.1602H123.908C124.051 56.6523 124.381 58.987 124.896 61.1641C125.441 63.3411 126.314 65.3034 127.517 67.0508C128.72 68.8555 130.282 70.2591 132.201 71.2617C134.12 72.2357 136.498 72.7227 139.334 72.7227C143.602 72.7227 147.025 71.5482 149.603 69.1992C152.181 66.8216 153.47 63.5846 153.47 59.4883C153.47 57.2826 152.926 55.3203 151.838 53.6016C150.749 51.8828 149.116 50.5508 146.939 49.6055C144.877 48.7174 142.829 47.9297 140.795 47.2422C138.789 46.526 136.813 45.6953 134.865 44.75C132.287 43.5182 130.21 41.7565 128.635 39.4648C127.059 37.1445 126.271 34.5378 126.271 31.6445C126.271 28.8945 126.873 26.3594 128.076 24.0391C129.308 21.7188 130.926 19.7135 132.931 18.0234C134.879 16.3906 137.228 15.0872 139.978 14.1133C142.757 13.1393 145.507 12.6523 148.228 12.6523C150.778 12.6523 153.184 12.9531 155.447 13.5547C157.739 14.1562 160.03 15.2878 162.322 16.9492L164.685 14.0273H168.123L163.783 34.2656H160.303C160.217 32.0599 159.987 29.7826 159.615 27.4336C159.271 25.0846 158.67 23.1367 157.81 21.5898C156.865 19.8997 155.547 18.582 153.857 17.6367C152.167 16.6628 149.918 16.1758 147.111 16.1758C143.731 16.1758 140.895 17.3503 138.603 19.6992C136.312 22.0195 135.166 24.7839 135.166 27.9922C135.166 30.112 135.581 31.9167 136.412 33.4062C137.271 34.8672 138.589 36.056 140.365 36.9727C142.256 37.9466 144.232 38.7917 146.295 39.5078C148.386 40.1953 150.248 40.9258 151.881 41.6992C155.175 43.2461 157.739 45.1081 159.572 47.2852C161.434 49.4622 162.365 52.1263 162.365 55.2773C162.365 58.3138 161.706 61.1497 160.388 63.7852C159.071 66.4206 157.309 68.6263 155.103 70.4023C152.783 72.293 150.176 73.7396 147.283 74.7422C144.418 75.7448 141.253 76.2461 137.787 76.2461ZM177.277 75.9023C174.556 75.9023 172.565 75.3581 171.304 74.2695C170.044 73.1523 169.414 71.5625 169.414 69.5C169.414 68.8411 169.457 68.2253 169.543 67.6523C169.628 67.0508 169.743 66.3776 169.886 65.6328L176.546 36.9297H168.898L169.8 33.0195H177.621L180.628 20.4297H188.363L185.441 33.0195H197.429L196.527 36.9297H184.625L179.125 60.6055C178.867 61.694 178.652 62.7539 178.48 63.7852C178.308 64.7878 178.222 65.6471 178.222 66.3633C178.222 67.9388 178.609 69.099 179.382 69.8438C180.184 70.5599 181.617 70.918 183.679 70.918C184.424 70.918 185.47 70.832 186.816 70.6602C188.162 70.4596 189.208 70.2161 189.953 69.9297L189.222 73.0664C187.217 73.8398 185.326 74.4987 183.55 75.043C181.774 75.6159 179.683 75.9023 177.277 75.9023ZM237.478 48.5312C237.478 51.9115 236.905 55.2917 235.759 58.6719C234.613 62.0521 232.952 65.0169 230.775 67.5664C228.569 70.2018 225.905 72.3216 222.783 73.9258C219.689 75.5013 216.094 76.2891 211.997 76.2891C207.242 76.2891 203.375 74.7565 200.396 71.6914C197.445 68.6263 195.97 64.5013 195.97 59.3164C195.97 55.5065 196.6 51.9544 197.861 48.6602C199.121 45.3659 200.811 42.4727 202.931 39.9805C205.079 37.4883 207.729 35.4831 210.88 33.9648C214.06 32.418 217.497 31.6445 221.193 31.6445C226.292 31.6445 230.273 33.2057 233.138 36.3281C236.031 39.4219 237.478 43.4896 237.478 48.5312ZM228.712 46.8984C228.712 42.8307 227.982 39.7799 226.521 37.7461C225.089 35.7122 223.012 34.6953 220.29 34.6953C217.913 34.6953 215.664 35.4258 213.544 36.8867C211.453 38.3477 209.648 40.7253 208.13 44.0195C206.956 46.5117 206.096 49.2904 205.552 52.3555C205.008 55.3919 204.736 58.1992 204.736 60.7773C204.736 64.8737 205.437 67.9818 206.841 70.1016C208.273 72.1927 210.422 73.2383 213.286 73.2383C215.836 73.2383 218.099 72.4362 220.075 70.832C222.052 69.2279 223.656 67.194 224.888 64.7305C226.12 62.3242 227.065 59.5742 227.724 56.4805C228.383 53.3581 228.712 50.1641 228.712 46.8984ZM279.589 38.6484C279.589 39.4505 279.474 40.3385 279.245 41.3125C279.016 42.2578 278.687 43.0456 278.257 43.6758C277.741 44.4492 277.168 45.0508 276.538 45.4805C275.937 45.8815 275.063 46.082 273.917 46.082C272.37 46.082 271.21 45.6953 270.437 44.9219C269.663 44.1484 269.276 43.2891 269.276 42.3438C269.276 41.4557 269.491 40.4674 269.921 39.3789C270.351 38.2617 270.795 37.1589 271.253 36.0703C270.909 36.0703 270.336 36.1706 269.534 36.3711C268.761 36.543 267.815 36.901 266.698 37.4453C265.581 37.9896 264.306 38.806 262.874 39.8945C261.47 40.9831 259.967 42.4297 258.362 44.2344L251.444 75H243.452L249.726 47.1562C249.869 46.4688 250.069 45.4375 250.327 44.0625C250.614 42.6875 250.757 41.6706 250.757 41.0117C250.757 39.4076 250.485 38.3333 249.94 37.7891C249.396 37.2448 248.308 36.9727 246.675 36.9727C246.045 36.9727 245.243 37.0872 244.269 37.3164C243.295 37.5169 242.536 37.6888 241.991 37.832L242.636 35.082C244.87 34.0794 246.847 33.3346 248.565 32.8477C250.284 32.3607 251.76 32.1172 252.991 32.1172C255.283 32.1172 256.916 32.7474 257.89 34.0078C258.864 35.2396 259.351 37.1016 259.351 39.5938H259.608C263.017 36.6432 265.595 34.5807 267.343 33.4062C269.119 32.2318 270.967 31.6445 272.886 31.6445C273.802 31.6445 274.69 31.7591 275.55 31.9883C276.409 32.2174 277.14 32.6042 277.741 33.1484C278.371 33.75 278.83 34.4518 279.116 35.2539C279.431 36.0273 279.589 37.1589 279.589 38.6484ZM308.294 68.7695H308.036C305.401 70.9753 302.894 72.7083 300.516 73.9688C298.139 75.2292 295.432 75.8594 292.395 75.8594C289.645 75.8594 287.468 75.0716 285.864 73.4961C284.26 71.8919 283.458 69.8008 283.458 67.2227C283.458 66.5352 283.515 65.7188 283.63 64.7734C283.744 63.8281 284.016 62.4245 284.446 60.5625L287.798 47.1562C288.113 45.8672 288.356 44.75 288.528 43.8047C288.7 42.8307 288.786 41.8997 288.786 41.0117C288.786 39.4076 288.514 38.3477 287.97 37.832C287.454 37.2878 286.38 37.0156 284.747 37.0156C284.117 37.0156 283.315 37.1302 282.341 37.3594C281.367 37.5885 280.608 37.7747 280.063 37.918L280.708 35.168C282.942 34.1654 284.904 33.4062 286.595 32.8906C288.313 32.375 289.688 32.1172 290.72 32.1172C293.011 32.1172 294.701 32.6328 295.79 33.6641C296.907 34.6953 297.466 36.2422 297.466 38.3047C297.466 38.8203 297.408 39.5221 297.294 40.4102C297.179 41.2982 297.007 42.1862 296.778 43.0742L292.868 58.7578C292.582 59.9609 292.338 61.0924 292.138 62.1523C291.937 63.1836 291.837 63.9714 291.837 64.5156C291.837 66.4349 292.295 67.9531 293.212 69.0703C294.157 70.1875 295.532 70.7461 297.337 70.7461C299.428 70.7461 301.462 70.2305 303.438 69.1992C305.444 68.168 307.32 66.75 309.067 64.9453L316.2 32.8047L323.634 32.2891L324.149 32.9336L316.759 66.5781C315.67 71.5052 314.281 75.7161 312.591 79.2109C310.901 82.7057 308.924 85.5273 306.661 87.6758C304.283 89.9388 301.72 91.5716 298.97 92.5742C296.22 93.5768 293.083 94.0781 289.559 94.0781C287.124 94.0781 285.191 93.9062 283.759 93.5625C282.326 93.2188 281.195 92.7461 280.364 92.1445C279.533 91.5716 278.975 90.9271 278.688 90.2109C278.402 89.4948 278.259 88.7786 278.259 88.0625C278.259 86.8307 278.631 85.7422 279.376 84.7969C280.121 83.8516 281.195 83.3789 282.598 83.3789C283.658 83.3789 284.561 83.6797 285.305 84.2812C286.05 84.8828 286.652 85.5417 287.11 86.2578C287.626 87.0312 288.098 87.9049 288.528 88.8789C288.958 89.8529 289.302 90.6263 289.559 91.1992H290.591C292.223 91.1992 293.942 90.7982 295.747 89.9961C297.58 89.194 299.256 87.9479 300.774 86.2578C302.407 84.4245 303.868 82.0612 305.157 79.168C306.475 76.2747 307.52 72.8086 308.294 68.7695Z" fill="#E9DEFF"/>
<path d="M2.00049 104C51.4187 89.6116 192.758 79.6352 330 97.8913" stroke="#E9DEFF" stroke-width="4" stroke-linecap="round"/>
</svg>
